Coordinates
version=1
nRows=11
nColumns=36
inDegrees=yes

Units are S.I. units (second, meters, Newtons, ...)
If the header above contains a line with 'inDegrees', this indicates whether rotational values are in degrees (yes) or radians (no).

endheader
time	pelvis_tilt	pelvis_list	pelvis_rotation	pelvis_tx	pelvis_ty	pelvis_tz	hip_flexion_r	hip_adduction_r	hip_rotation_r	knee_angle_r	knee_angle_r_beta	ankle_angle_r	subtalar_angle_r	mtp_angle_r	hip_flexion_l	hip_adduction_l	hip_rotation_l	knee_angle_l	knee_angle_l_beta	ankle_angle_l	subtalar_angle_l	mtp_angle_l	lumbar_extension	lumbar_bending	lumbar_rotation	arm_flex_r	arm_add_r	arm_rot_r	elbow_flex_r	pro_sup_r	arm_flex_l	arm_add_l	arm_rot_l	elbow_flex_l	pro_sup_l
      2.21666670	     -1.29076387	     -0.70879438	      2.39145700	      0.36144573	      0.96230644	     -0.11369404	     -5.07614581	     -0.85078999	    -11.61549108	      0.45888613	      0.00800907	     -2.17359549	    -16.08732399	     -7.49999987	     -2.17411428	     -2.17509526	     -0.31079412	      1.10431686	      0.01927397	      0.80823294	     -3.69365894	     -7.49999987	      0.36881637	     -2.42808770	     15.85492980	   -133.90202134	    -54.08425145	   -189.61850851	     38.72704681	     57.31801238	    100.36303410	    -43.21882966	     37.56776880	      9.18808385	     68.73898716
      2.23333330	     -1.28314186	     -0.67621697	      2.42851419	      0.36149797	      0.96234546	     -0.11351071	     -5.10057286	     -0.85880004	    -11.59016926	      0.44027635	      0.00768427	     -2.16150866	    -15.90380461	     -7.49999987	     -2.16641143	     -2.14562046	     -0.40865459	      1.10354567	      0.01926051	      0.74756403	     -3.56016170	     -7.49999987	      0.37091910	     -2.59126597	     15.96775723	   -134.86114859	    -54.00316848	   -191.50003664	     37.89822010	     57.16715365	    101.28635984	    -42.75896809	     39.55449058	      8.25733562	     69.81655190
      2.25000000	     -1.23850054	     -0.67287633	      2.46336866	      0.36135444	      0.96209200	     -0.11372422	     -5.15416957	     -0.85995939	    -11.38668455	      0.45325253	      0.00791075	     -2.16395200	    -15.78272301	     -7.49999987	     -2.19896747	     -2.16310228	     -0.43532265	      1.06508398	      0.01858922	      0.67527860	     -3.53323514	     -7.49999987	      0.23712199	     -2.60647659	     16.19327225	   -135.80385803	    -53.18802252	   -192.13211781	     36.79587530	     56.99801118	    101.73373397	    -42.42403104	     39.13136690	      8.32182479	     69.15124213
      2.26666670	     -1.18860589	     -0.65767906	      2.47872467	      0.36141328	      0.96220722	     -0.11360489	     -5.22584690	     -0.87373259	    -11.32867218	      0.45559630	      0.00795166	     -2.29144139	    -15.78448689	     -7.49999987	     -2.25557044	     -2.14717296	     -0.42020218	      1.05784023	      0.01846280	      0.62482583	     -3.40770717	     -7.49999987	      0.37146856	     -2.60735845	     15.46638414	   -139.71602680	    -54.21623442	   -198.79280364	     34.86875987	     55.16636089	    102.38425778	    -43.16848093	     41.04938555	      7.90645268	     69.13633017
      2.28333330	     -1.19027357	     -0.64784323	      2.45138594	      0.36137122	      0.96196487	     -0.11373654	     -5.21876926	     -0.90103953	    -11.24223988	      0.47327071	      0.00826013	     -2.44790457	    -15.93037085	     -7.49999987	     -2.26311425	     -2.13257469	     -0.48300874	      1.05358669	      0.01838856	      0.63810261	     -3.34178664	     -7.49999987	      0.32779541	     -2.67302243	     15.79900333	   -141.11655692	    -53.40947412	   -200.48243507	     32.97404501	     54.87384997	    102.82175467	    -42.69252675	     40.65966002	      7.76006093	     68.44312654
      2.30000000	     -1.12712564	     -0.63698814	      2.41551341	      0.36144070	      0.96210979	     -0.11349770	     -5.28117402	     -0.93170291	    -11.27095903	      0.49306716	      0.00860565	     -2.40753772	    -15.84027132	     -7.49999987	     -2.35822126	     -2.11518333	     -0.57937063	      1.03231307	      0.01801726	      0.66413620	     -3.20670264	     -7.49999987	      0.39331183	     -2.48932180	     14.74227557	   -145.17386680	    -53.84742906	   -206.14255757	     31.97403815	     52.94212461	    103.09657544	    -44.24578108	     42.71323591	      7.75430825	     67.54467543
      2.31666670	     -1.15333961	     -0.63532707	      2.35492995	      0.36138838	      0.96194025	     -0.11364531	     -5.24916455	     -0.95294893	    -11.19881020	      0.47950501	      0.00836894	     -2.44924522	    -15.84216684	     -7.49999987	     -2.35218385	     -2.09022682	     -0.63237013	      1.02604533	      0.01790787	      0.62358930	     -3.22026951	     -7.49999987	      0.39182973	     -2.50758515	     14.86906375	   -145.97593177	    -52.92010368	   -205.94969737	     31.10147863	     52.96208130	    103.41382127	    -44.13820497	     42.87289055	      7.52071471	     67.19335800
      2.33333330	     -1.21865094	     -0.65958645	      2.30222046	      0.36135922	      0.96193347	     -0.11347453	     -5.17552070	     -0.94682288	    -11.17197131	      0.46141342	      0.00805318	     -2.48805855	    -15.82847198	     -7.49999987	     -2.28750997	     -2.08237964	     -0.63340414	      1.00483192	      0.01753763	      0.64887536	     -3.23033832	     -7.49999987	      0.40861919	     -2.39640849	     14.76907010	   -147.68177997	    -52.09044938	   -205.96201360	     29.26688240	     52.88474981	    103.30681154	    -44.46392539	     41.29039429	      7.85463835	     66.48074116
      2.35000000	     -1.23284800	     -0.63197964	      2.27329516	      0.36129599	      0.95865171	     -0.11335015	     -5.14555736	     -0.98721369	    -11.22175284	      0.44328482	      0.00773678	     -2.38467448	    -15.78793439	     -7.49999987	     -2.26778215	     -2.02334005	     -0.76660335	      0.99939998	      0.01744282	      0.75321439	     -3.25747610	     -7.49999987	      0.59295551	     -2.43318454	     14.24082027	   -150.94453359	    -51.98982449	   -208.58111571	     26.83061450	     49.88021510	    104.55100935	    -44.80734732	     46.67866385	      6.31034350	     65.93457932
      2.36666670	     -1.24118578	     -0.64881712	      2.26464426	      0.36132715	      0.95898507	     -0.11317418	     -5.14580872	     -0.95530699	    -11.25222591	      0.42962982	      0.00749845	     -2.38043791	    -15.63987348	     -7.49999987	     -2.24609334	     -2.03359480	     -0.70949604	      0.99998214	      0.01745298	      0.76998886	     -3.50261116	     -7.49999987	      0.60168048	     -2.46624855	     14.09060467	   -152.42265675	    -51.27712217	   -208.42491891	     25.10295817	     49.69390889	    105.19378349	    -44.83979445	     47.67229698	      5.94944220	     65.25783627
      2.38333330	     -1.30423045	     -0.62687630	      2.27974844	      0.36133345	      0.95897298	     -0.11337625	     -5.09297540	     -0.98384809	    -11.14637912	      0.42049116	      0.00733896	     -2.33215274	    -15.90829440	     -7.49999987	     -2.14729317	     -1.99336376	     -0.85385050	      1.01178132	      0.01765892	      0.87205706	     -3.41403720	     -7.49999987	      0.61478314	     -2.58771695	     14.23958033	   -152.68160447	    -50.60625407	   -208.07481953	     24.01500243	     49.66972462	    105.47062977	    -44.46529543	     47.50542781	      5.96413271	     64.97379266
